<svg width="26" height="26" viewBox="0 0 26 26" fill="none" xmlns="http://www.w3.org/2000/svg">
<g clip-path="url(#clip0_86_674)">
<path d="M19.7698 14.5275C18.9183 16.2533 17.7645 17.9725 16.5848 19.5163C15.4656 20.9716 14.269 22.3657 13 23.6925C11.731 22.3657 10.5344 20.9717 9.41525 19.5163C8.2355 17.9725 7.08175 16.2533 6.23025 14.5275C5.369 12.7839 4.875 11.1508 4.875 9.75C4.875 7.59512 5.73102 5.52849 7.25476 4.00476C8.77849 2.48102 10.8451 1.625 13 1.625C15.1549 1.625 17.2215 2.48102 18.7452 4.00476C20.269 5.52849 21.125 7.59512 21.125 9.75C21.125 11.1508 20.6294 12.7839 19.7698 14.5275ZM13 26C13 26 22.75 16.7603 22.75 9.75C22.75 7.16414 21.7228 4.68419 19.8943 2.85571C18.0658 1.02723 15.5859 0 13 0C10.4141 0 7.93419 1.02723 6.10571 2.85571C4.27723 4.68419 3.25 7.16414 3.25 9.75C3.25 16.7603 13 26 13 26Z" fill="black"/>
<path d="M13 13C12.138 13 11.3114 12.6576 10.7019 12.0481C10.0924 11.4386 9.75 10.612 9.75 9.75C9.75 8.88805 10.0924 8.0614 10.7019 7.4519C11.3114 6.84241 12.138 6.5 13 6.5C13.862 6.5 14.6886 6.84241 15.2981 7.4519C15.9076 8.0614 16.25 8.88805 16.25 9.75C16.25 10.612 15.9076 11.4386 15.2981 12.0481C14.6886 12.6576 13.862 13 13 13ZM13 14.625C14.2929 14.625 15.5329 14.1114 16.4471 13.1971C17.3614 12.2829 17.875 11.0429 17.875 9.75C17.875 8.45707 17.3614 7.21709 16.4471 6.30285C15.5329 5.38861 14.2929 4.875 13 4.875C11.7071 4.875 10.4671 5.38861 9.55285 6.30285C8.63861 7.21709 8.125 8.45707 8.125 9.75C8.125 11.0429 8.63861 12.2829 9.55285 13.1971C10.4671 14.1114 11.7071 14.625 13 14.625Z" fill="black"/>
</g>
<defs>
<clipPath id="clip0_86_674">
<rect width="26" height="26" fill="white"/>
</clipPath>
</defs>
</svg>
