<svg width="26" height="26" viewBox="0 0 26 26" fill="none" xmlns="http://www.w3.org/2000/svg">
<g clip-path="url(#clip0_86_662)">
<path d="M13 5.6875C13 5.47201 12.9144 5.26535 12.762 5.11298C12.6097 4.9606 12.403 4.875 12.1875 4.875C11.972 4.875 11.7653 4.9606 11.613 5.11298C11.4606 5.26535 11.375 5.47201 11.375 5.6875V14.625C11.375 14.7682 11.4129 14.9089 11.4849 15.0327C11.5568 15.1566 11.6601 15.2592 11.7845 15.3302L17.472 18.5802C17.6586 18.6811 17.8773 18.705 18.0814 18.6467C18.2854 18.5885 18.4585 18.4528 18.5638 18.2686C18.669 18.0844 18.698 17.8663 18.6447 17.661C18.5913 17.4556 18.4597 17.2793 18.278 17.1698L13 14.1538V5.6875Z" fill="black"/>
<path d="M13 26C16.4478 26 19.7544 24.6304 22.1924 22.1924C24.6304 19.7544 26 16.4478 26 13C26 9.55219 24.6304 6.24558 22.1924 3.80761C19.7544 1.36964 16.4478 0 13 0C9.55219 0 6.24558 1.36964 3.80761 3.80761C1.36964 6.24558 0 9.55219 0 13C0 16.4478 1.36964 19.7544 3.80761 22.1924C6.24558 24.6304 9.55219 26 13 26ZM24.375 13C24.375 16.0168 23.1766 18.9101 21.0433 21.0433C18.9101 23.1766 16.0168 24.375 13 24.375C9.98316 24.375 7.08989 23.1766 4.95666 21.0433C2.82343 18.9101 1.625 16.0168 1.625 13C1.625 9.98316 2.82343 7.08989 4.95666 4.95666C7.08989 2.82343 9.98316 1.625 13 1.625C16.0168 1.625 18.9101 2.82343 21.0433 4.95666C23.1766 7.08989 24.375 9.98316 24.375 13Z" fill="black"/>
</g>
<defs>
<clipPath id="clip0_86_662">
<rect width="26" height="26" fill="white"/>
</clipPath>
</defs>
</svg>
